<?xml version="1.0" encoding="UTF-8"?>
<svg xmlns="http://www.w3.org/2000/svg" xmlns:xlink="http://www.w3.org/1999/xlink" width="128pt" height="128pt" viewBox="0 0 128 128" version="1.1">
<g id="surface1">
<path style=" stroke:none;fill-rule:nonzero;fill:rgb(0%,0%,0%);fill-opacity:1;" d="M 53.15625 87.597656 L 32.390625 87.597656 C 24.015625 87.636719 16.867188 81.433594 15.546875 72.988281 C 14.230469 64.542969 19.140625 56.375 27.113281 53.757812 L 34.386719 51.3125 L 33.558594 43.550781 C 33.148438 37.492188 34.820312 31.476562 38.285156 26.542969 C 42.242188 22.300781 47.761719 19.945312 53.5 20.054688 C 61.761719 19.839844 69.222656 25.078125 71.976562 33.035156 L 76.097656 43.625 L 85.644531 37.757812 C 87.578125 36.53125 89.804688 35.871094 92.082031 35.855469 C 98.117188 35.863281 103.296875 40.253906 104.414062 46.3125 L 104.914062 49.03125 L 114.367188 49.03125 C 114.222656 47.617188 114.027344 46.117188 113.707031 44.527344 C 112.410156 37.277344 107.699219 31.152344 101.117188 28.144531 C 94.53125 25.140625 86.917969 25.640625 80.769531 29.488281 C 76.265625 18.027344 65.421875 10.484375 53.328125 10.402344 C 20.699219 10.402344 24.167969 44.582031 24.167969 44.582031 C 11.785156 48.683594 4.167969 61.382812 6.21875 74.511719 C 8.269531 87.640625 19.375 97.289062 32.390625 97.253906 L 53.15625 97.253906 Z M 53.15625 87.597656 "/>
<path style=" stroke:none;fill-rule:nonzero;fill:rgb(100%,0%,0%);fill-opacity:1;" d="M 81.230469 63.734375 C 98.9375 20.085938 168.308594 63.734375 81.230469 119.851562 C -5.847656 63.734375 63.523438 20.085938 81.230469 63.734375 Z M 81.230469 63.734375 "/>
</g>
</svg>
