<?xml version="1.0" encoding="UTF-8"?>
<svg xmlns="http://www.w3.org/2000/svg" xmlns:xlink="http://www.w3.org/1999/xlink" width="16pt" height="16pt" viewBox="0 0 16 16" version="1.1">
<g id="surface1">
<path style=" stroke:none;fill-rule:nonzero;fill:rgb(0%,0%,0%);fill-opacity:1;" d="M 6.644531 10.949219 L 4.046875 10.949219 C 3.003906 10.953125 2.109375 10.179688 1.945312 9.125 C 1.777344 8.066406 2.394531 7.046875 3.390625 6.71875 L 4.296875 6.414062 L 4.195312 5.445312 C 4.144531 4.6875 4.351562 3.933594 4.785156 3.316406 C 5.28125 2.789062 5.96875 2.492188 6.6875 2.507812 C 7.71875 2.480469 8.652344 3.136719 8.996094 4.128906 L 9.511719 5.453125 L 10.707031 4.71875 C 10.945312 4.566406 11.226562 4.484375 11.511719 4.480469 C 12.265625 4.484375 12.910156 5.03125 13.050781 5.789062 L 13.113281 6.128906 L 14.296875 6.128906 C 14.277344 5.953125 14.253906 5.765625 14.214844 5.566406 C 14.050781 4.660156 13.460938 3.894531 12.640625 3.519531 C 11.816406 3.140625 10.863281 3.207031 10.097656 3.6875 C 9.53125 2.253906 8.175781 1.3125 6.667969 1.300781 C 2.585938 1.300781 3.019531 5.574219 3.019531 5.574219 C 1.472656 6.085938 0.519531 7.671875 0.777344 9.3125 C 1.035156 10.953125 2.421875 12.160156 4.046875 12.15625 L 6.644531 12.15625 Z M 6.644531 10.949219 "/>
<path style=" stroke:none;fill-rule:nonzero;fill:rgb(100%,0%,0%);fill-opacity:1;" d="M 10.152344 7.964844 C 12.367188 2.511719 21.039062 7.964844 10.152344 14.980469 C -0.730469 7.964844 7.941406 2.511719 10.152344 7.964844 Z M 10.152344 7.964844 "/>
</g>
</svg>
