<?xml version="1.0" encoding="UTF-8"?>
<svg xmlns="http://www.w3.org/2000/svg" xmlns:xlink="http://www.w3.org/1999/xlink" width="48pt" height="48pt" viewBox="0 0 48 48" version="1.1">
<g id="surface1">
<path style=" stroke:none;fill-rule:nonzero;fill:rgb(0%,0%,0%);fill-opacity:1;" d="M 19.933594 32.847656 L 12.144531 32.847656 C 9.007812 32.863281 6.324219 30.539062 5.832031 27.371094 C 5.335938 24.203125 7.179688 21.140625 10.167969 20.160156 L 12.894531 19.242188 L 12.585938 16.332031 C 12.429688 14.058594 13.058594 11.804688 14.355469 9.953125 C 15.839844 8.363281 17.910156 7.480469 20.0625 7.519531 C 23.160156 7.4375 25.957031 9.40625 26.992188 12.386719 L 28.535156 16.359375 L 32.117188 14.160156 C 32.839844 13.699219 33.675781 13.453125 34.53125 13.445312 C 36.792969 13.449219 38.734375 15.09375 39.15625 17.367188 L 39.34375 18.386719 L 42.886719 18.386719 C 42.832031 17.855469 42.761719 17.292969 42.640625 16.695312 C 42.152344 13.980469 40.386719 11.683594 37.917969 10.554688 C 35.449219 9.425781 32.59375 9.617188 30.289062 11.058594 C 28.597656 6.761719 24.53125 3.933594 20 3.902344 C 7.761719 3.902344 9.0625 16.71875 9.0625 16.71875 C 4.417969 18.257812 1.5625 23.019531 2.332031 27.941406 C 3.101562 32.863281 7.265625 36.484375 12.144531 36.46875 L 19.933594 36.46875 Z M 19.933594 32.847656 "/>
<path style=" stroke:none;fill-rule:nonzero;fill:rgb(100%,0%,0%);fill-opacity:1;" d="M 30.460938 23.898438 C 37.101562 7.53125 63.117188 23.898438 30.460938 44.945312 C -2.191406 23.898438 23.820312 7.53125 30.460938 23.898438 Z M 30.460938 23.898438 "/>
</g>
</svg>
